<mxfile host="app.diagrams.net" agent="Mozilla/5.0 (Windows NT 10.0; Win64; x64) AppleWebKit/537.36 (KHTML, like Gecko) Chrome/127.0.0.0 Safari/537.36 Edg/127.0.0.0" version="24.7.7">
  <diagram name="Page-1" id="13e1069c-82ec-6db2-03f1-153e76fe0fe0">
    <mxGraphModel dx="1042" dy="567" grid="1" gridSize="10" guides="1" tooltips="1" connect="1" arrows="1" fold="1" page="1" pageScale="1" pageWidth="1100" pageHeight="850" background="none" math="0" shadow="0">
      <root>
        <mxCell id="0" />
        <mxCell id="1" parent="0" />
        <mxCell id="B12ETDxXN28JW5af8k6e-1" value="Actor" style="shape=umlActor;verticalLabelPosition=bottom;verticalAlign=top;html=1;outlineConnect=0;" vertex="1" parent="1">
          <mxGeometry x="230" y="90" width="30" height="60" as="geometry" />
        </mxCell>
        <mxCell id="B12ETDxXN28JW5af8k6e-3" value="ATM" style="rounded=0;whiteSpace=wrap;html=1;" vertex="1" parent="1">
          <mxGeometry x="340" y="90" width="120" height="60" as="geometry" />
        </mxCell>
        <mxCell id="B12ETDxXN28JW5af8k6e-4" value="Bank Database" style="rounded=0;whiteSpace=wrap;html=1;" vertex="1" parent="1">
          <mxGeometry x="540" y="90" width="120" height="60" as="geometry" />
        </mxCell>
        <mxCell id="B12ETDxXN28JW5af8k6e-5" value="" style="endArrow=none;dashed=1;html=1;dashPattern=1 3;strokeWidth=2;rounded=0;" edge="1" parent="1" source="B12ETDxXN28JW5af8k6e-10">
          <mxGeometry width="50" height="50" relative="1" as="geometry">
            <mxPoint x="400" y="200" as="sourcePoint" />
            <mxPoint x="400" y="150" as="targetPoint" />
            <Array as="points" />
          </mxGeometry>
        </mxCell>
        <mxCell id="B12ETDxXN28JW5af8k6e-7" value="" style="endArrow=none;dashed=1;html=1;dashPattern=1 3;strokeWidth=2;rounded=0;" edge="1" parent="1" source="B12ETDxXN28JW5af8k6e-11">
          <mxGeometry width="50" height="50" relative="1" as="geometry">
            <mxPoint x="600" y="310" as="sourcePoint" />
            <mxPoint x="599.5" y="150" as="targetPoint" />
            <Array as="points" />
          </mxGeometry>
        </mxCell>
        <mxCell id="B12ETDxXN28JW5af8k6e-8" value="" style="endArrow=none;dashed=1;html=1;dashPattern=1 3;strokeWidth=2;rounded=0;" edge="1" parent="1">
          <mxGeometry width="50" height="50" relative="1" as="geometry">
            <mxPoint x="250" y="200" as="sourcePoint" />
            <mxPoint x="250" y="170" as="targetPoint" />
            <Array as="points" />
          </mxGeometry>
        </mxCell>
        <mxCell id="B12ETDxXN28JW5af8k6e-9" value="" style="html=1;points=[[0,0,0,0,5],[0,1,0,0,-5],[1,0,0,0,5],[1,1,0,0,-5]];perimeter=orthogonalPerimeter;outlineConnect=0;targetShapes=umlLifeline;portConstraint=eastwest;newEdgeStyle={&quot;curved&quot;:0,&quot;rounded&quot;:0};" vertex="1" parent="1">
          <mxGeometry x="240" y="200" width="20" height="420" as="geometry" />
        </mxCell>
        <mxCell id="B12ETDxXN28JW5af8k6e-10" value="" style="html=1;points=[[0,0,0,0,5],[0,1,0,0,-5],[1,0,0,0,5],[1,1,0,0,-5]];perimeter=orthogonalPerimeter;outlineConnect=0;targetShapes=umlLifeline;portConstraint=eastwest;newEdgeStyle={&quot;curved&quot;:0,&quot;rounded&quot;:0};" vertex="1" parent="1">
          <mxGeometry x="390" y="210" width="20" height="410" as="geometry" />
        </mxCell>
        <mxCell id="B12ETDxXN28JW5af8k6e-12" value="" style="endArrow=classic;html=1;rounded=0;" edge="1" parent="1" target="B12ETDxXN28JW5af8k6e-10">
          <mxGeometry width="50" height="50" relative="1" as="geometry">
            <mxPoint x="260" y="240" as="sourcePoint" />
            <mxPoint x="310" y="190" as="targetPoint" />
          </mxGeometry>
        </mxCell>
        <mxCell id="B12ETDxXN28JW5af8k6e-13" value="insert card(cid)" style="text;html=1;align=center;verticalAlign=middle;resizable=0;points=[];autosize=1;strokeColor=none;fillColor=none;" vertex="1" parent="1">
          <mxGeometry x="270" y="210" width="100" height="30" as="geometry" />
        </mxCell>
        <mxCell id="B12ETDxXN28JW5af8k6e-14" value="" style="html=1;labelBackgroundColor=#ffffff;startArrow=none;startFill=0;startSize=6;endArrow=classic;endFill=1;endSize=6;jettySize=auto;orthogonalLoop=1;strokeWidth=1;dashed=1;fontSize=14;rounded=0;" edge="1" parent="1">
          <mxGeometry width="60" height="60" relative="1" as="geometry">
            <mxPoint x="390" y="270" as="sourcePoint" />
            <mxPoint x="260" y="270" as="targetPoint" />
          </mxGeometry>
        </mxCell>
        <mxCell id="B12ETDxXN28JW5af8k6e-15" value="display message(msg)" style="text;html=1;align=center;verticalAlign=middle;resizable=0;points=[];autosize=1;strokeColor=none;fillColor=none;" vertex="1" parent="1">
          <mxGeometry x="260" y="240" width="140" height="30" as="geometry" />
        </mxCell>
        <mxCell id="B12ETDxXN28JW5af8k6e-16" value="" style="endArrow=classic;html=1;rounded=0;" edge="1" parent="1">
          <mxGeometry width="50" height="50" relative="1" as="geometry">
            <mxPoint x="260" y="300" as="sourcePoint" />
            <mxPoint x="390" y="300" as="targetPoint" />
          </mxGeometry>
        </mxCell>
        <mxCell id="B12ETDxXN28JW5af8k6e-17" value="insert pin (pin)" style="text;html=1;align=center;verticalAlign=middle;resizable=0;points=[];autosize=1;strokeColor=none;fillColor=none;" vertex="1" parent="1">
          <mxGeometry x="280" y="270" width="100" height="30" as="geometry" />
        </mxCell>
        <mxCell id="B12ETDxXN28JW5af8k6e-20" value="" style="swimlane;whiteSpace=wrap;html=1;startSize=0;" vertex="1" parent="1">
          <mxGeometry x="160" y="330" width="550" height="310" as="geometry" />
        </mxCell>
        <mxCell id="B12ETDxXN28JW5af8k6e-21" value="Pin valid" style="text;html=1;align=center;verticalAlign=middle;resizable=0;points=[];autosize=1;strokeColor=none;fillColor=none;" vertex="1" parent="B12ETDxXN28JW5af8k6e-20">
          <mxGeometry y="20" width="70" height="30" as="geometry" />
        </mxCell>
        <mxCell id="B12ETDxXN28JW5af8k6e-11" value="" style="html=1;points=[[0,0,0,0,5],[0,1,0,0,-5],[1,0,0,0,5],[1,1,0,0,-5]];perimeter=orthogonalPerimeter;outlineConnect=0;targetShapes=umlLifeline;portConstraint=eastwest;newEdgeStyle={&quot;curved&quot;:0,&quot;rounded&quot;:0};" vertex="1" parent="B12ETDxXN28JW5af8k6e-20">
          <mxGeometry x="430" y="20" width="20" height="210" as="geometry" />
        </mxCell>
        <mxCell id="B12ETDxXN28JW5af8k6e-22" value="" style="html=1;labelBackgroundColor=#ffffff;startArrow=none;startFill=0;startSize=6;endArrow=classic;endFill=1;endSize=6;jettySize=auto;orthogonalLoop=1;strokeWidth=1;dashed=1;fontSize=14;rounded=0;" edge="1" parent="B12ETDxXN28JW5af8k6e-20" target="B12ETDxXN28JW5af8k6e-9">
          <mxGeometry width="60" height="60" relative="1" as="geometry">
            <mxPoint x="230" y="30" as="sourcePoint" />
            <mxPoint x="360" y="30" as="targetPoint" />
          </mxGeometry>
        </mxCell>
        <mxCell id="B12ETDxXN28JW5af8k6e-23" value="display dashboard" style="text;html=1;align=center;verticalAlign=middle;resizable=0;points=[];autosize=1;strokeColor=none;fillColor=none;" vertex="1" parent="B12ETDxXN28JW5af8k6e-20">
          <mxGeometry x="110" width="120" height="30" as="geometry" />
        </mxCell>
        <mxCell id="B12ETDxXN28JW5af8k6e-24" value="" style="endArrow=classic;html=1;rounded=0;" edge="1" parent="B12ETDxXN28JW5af8k6e-20">
          <mxGeometry width="50" height="50" relative="1" as="geometry">
            <mxPoint x="100" y="60" as="sourcePoint" />
            <mxPoint x="230" y="60" as="targetPoint" />
          </mxGeometry>
        </mxCell>
        <mxCell id="B12ETDxXN28JW5af8k6e-26" value="withdraw balance" style="text;html=1;align=center;verticalAlign=middle;resizable=0;points=[];autosize=1;strokeColor=none;fillColor=none;" vertex="1" parent="B12ETDxXN28JW5af8k6e-20">
          <mxGeometry x="110" y="30" width="120" height="30" as="geometry" />
        </mxCell>
        <mxCell id="B12ETDxXN28JW5af8k6e-27" value="" style="endArrow=classic;html=1;rounded=0;" edge="1" parent="B12ETDxXN28JW5af8k6e-20" target="B12ETDxXN28JW5af8k6e-11">
          <mxGeometry width="50" height="50" relative="1" as="geometry">
            <mxPoint x="250" y="60" as="sourcePoint" />
            <mxPoint x="300" y="10" as="targetPoint" />
          </mxGeometry>
        </mxCell>
        <mxCell id="B12ETDxXN28JW5af8k6e-28" value="check amount (amt)" style="text;html=1;align=center;verticalAlign=middle;resizable=0;points=[];autosize=1;strokeColor=none;fillColor=none;" vertex="1" parent="B12ETDxXN28JW5af8k6e-20">
          <mxGeometry x="260" y="30" width="130" height="30" as="geometry" />
        </mxCell>
        <mxCell id="B12ETDxXN28JW5af8k6e-29" value="" style="swimlane;whiteSpace=wrap;html=1;startSize=0;" vertex="1" parent="B12ETDxXN28JW5af8k6e-20">
          <mxGeometry x="20" y="80" width="510" height="140" as="geometry" />
        </mxCell>
        <mxCell id="B12ETDxXN28JW5af8k6e-30" value="amount&lt;div&gt;==&lt;/div&gt;&lt;div&gt;&amp;nbsp;valid&lt;/div&gt;" style="text;html=1;align=center;verticalAlign=middle;resizable=0;points=[];autosize=1;strokeColor=none;fillColor=none;" vertex="1" parent="B12ETDxXN28JW5af8k6e-29">
          <mxGeometry y="15" width="60" height="60" as="geometry" />
        </mxCell>
        <mxCell id="B12ETDxXN28JW5af8k6e-32" value="print recepit ()" style="text;html=1;align=center;verticalAlign=middle;resizable=0;points=[];autosize=1;strokeColor=none;fillColor=none;" vertex="1" parent="B12ETDxXN28JW5af8k6e-29">
          <mxGeometry x="90" width="100" height="30" as="geometry" />
        </mxCell>
        <mxCell id="B12ETDxXN28JW5af8k6e-33" value="" style="html=1;labelBackgroundColor=#ffffff;startArrow=none;startFill=0;startSize=6;endArrow=classic;endFill=1;endSize=6;jettySize=auto;orthogonalLoop=1;strokeWidth=1;dashed=1;fontSize=14;rounded=0;" edge="1" parent="B12ETDxXN28JW5af8k6e-29" source="B12ETDxXN28JW5af8k6e-11">
          <mxGeometry width="60" height="60" relative="1" as="geometry">
            <mxPoint x="360" y="30" as="sourcePoint" />
            <mxPoint x="230" y="30" as="targetPoint" />
          </mxGeometry>
        </mxCell>
        <mxCell id="B12ETDxXN28JW5af8k6e-34" value="display message (msg)" style="text;html=1;align=center;verticalAlign=middle;resizable=0;points=[];autosize=1;strokeColor=none;fillColor=none;" vertex="1" parent="B12ETDxXN28JW5af8k6e-29">
          <mxGeometry x="250" width="150" height="30" as="geometry" />
        </mxCell>
        <mxCell id="B12ETDxXN28JW5af8k6e-35" value="" style="endArrow=none;dashed=1;html=1;dashPattern=1 3;strokeWidth=2;rounded=0;entryX=0.994;entryY=0.617;entryDx=0;entryDy=0;entryPerimeter=0;exitX=-0.005;exitY=0.634;exitDx=0;exitDy=0;exitPerimeter=0;" edge="1" parent="B12ETDxXN28JW5af8k6e-29">
          <mxGeometry width="50" height="50" relative="1" as="geometry">
            <mxPoint x="0.5100000000000442" y="88.75999999999999" as="sourcePoint" />
            <mxPoint x="510" y="86.38000000000011" as="targetPoint" />
          </mxGeometry>
        </mxCell>
        <mxCell id="B12ETDxXN28JW5af8k6e-36" value="" style="html=1;labelBackgroundColor=#ffffff;startArrow=none;startFill=0;startSize=6;endArrow=classic;endFill=1;endSize=6;jettySize=auto;orthogonalLoop=1;strokeWidth=1;dashed=1;fontSize=14;rounded=0;" edge="1" parent="B12ETDxXN28JW5af8k6e-29">
          <mxGeometry width="60" height="60" relative="1" as="geometry">
            <mxPoint x="210" y="110" as="sourcePoint" />
            <mxPoint x="80" y="110" as="targetPoint" />
          </mxGeometry>
        </mxCell>
        <mxCell id="B12ETDxXN28JW5af8k6e-37" value="eject card (cid)" style="text;html=1;align=center;verticalAlign=middle;resizable=0;points=[];autosize=1;strokeColor=none;fillColor=none;" vertex="1" parent="B12ETDxXN28JW5af8k6e-29">
          <mxGeometry x="100" y="80" width="100" height="30" as="geometry" />
        </mxCell>
        <mxCell id="B12ETDxXN28JW5af8k6e-38" value="" style="html=1;labelBackgroundColor=#ffffff;startArrow=none;startFill=0;startSize=6;endArrow=classic;endFill=1;endSize=6;jettySize=auto;orthogonalLoop=1;strokeWidth=1;dashed=1;fontSize=14;rounded=0;exitX=0;exitY=0.267;exitDx=0;exitDy=0;exitPerimeter=0;" edge="1" parent="B12ETDxXN28JW5af8k6e-29">
          <mxGeometry width="60" height="60" relative="1" as="geometry">
            <mxPoint x="410" y="110" as="sourcePoint" />
            <mxPoint x="230" y="110" as="targetPoint" />
          </mxGeometry>
        </mxCell>
        <mxCell id="B12ETDxXN28JW5af8k6e-39" value="display error (msg)" style="text;html=1;align=center;verticalAlign=middle;resizable=0;points=[];autosize=1;strokeColor=none;fillColor=none;" vertex="1" parent="B12ETDxXN28JW5af8k6e-29">
          <mxGeometry x="260" y="80" width="120" height="30" as="geometry" />
        </mxCell>
        <mxCell id="B12ETDxXN28JW5af8k6e-31" value="" style="html=1;labelBackgroundColor=#ffffff;startArrow=none;startFill=0;startSize=6;endArrow=classic;endFill=1;endSize=6;jettySize=auto;orthogonalLoop=1;strokeWidth=1;dashed=1;fontSize=14;rounded=0;" edge="1" parent="B12ETDxXN28JW5af8k6e-20" target="B12ETDxXN28JW5af8k6e-9">
          <mxGeometry width="60" height="60" relative="1" as="geometry">
            <mxPoint x="230" y="110" as="sourcePoint" />
            <mxPoint x="290" y="50" as="targetPoint" />
          </mxGeometry>
        </mxCell>
        <mxCell id="B12ETDxXN28JW5af8k6e-40" value="" style="endArrow=none;dashed=1;html=1;dashPattern=1 3;strokeWidth=2;rounded=0;entryX=1;entryY=0.815;entryDx=0;entryDy=0;entryPerimeter=0;exitX=-0.005;exitY=0.634;exitDx=0;exitDy=0;exitPerimeter=0;" edge="1" parent="B12ETDxXN28JW5af8k6e-20">
          <mxGeometry width="50" height="50" relative="1" as="geometry">
            <mxPoint x="5.684341886080802e-14" y="241.57999999999998" as="sourcePoint" />
            <mxPoint x="550" y="239.99999999999994" as="targetPoint" />
          </mxGeometry>
        </mxCell>
        <mxCell id="B12ETDxXN28JW5af8k6e-43" value="" style="html=1;labelBackgroundColor=#ffffff;startArrow=none;startFill=0;startSize=6;endArrow=classic;endFill=1;endSize=6;jettySize=auto;orthogonalLoop=1;strokeWidth=1;dashed=1;fontSize=14;rounded=0;" edge="1" parent="B12ETDxXN28JW5af8k6e-20">
          <mxGeometry width="60" height="60" relative="1" as="geometry">
            <mxPoint x="230" y="270" as="sourcePoint" />
            <mxPoint x="100" y="270" as="targetPoint" />
          </mxGeometry>
        </mxCell>
        <mxCell id="B12ETDxXN28JW5af8k6e-44" value="eject card (cid)" style="text;html=1;align=center;verticalAlign=middle;resizable=0;points=[];autosize=1;strokeColor=none;fillColor=none;" vertex="1" parent="B12ETDxXN28JW5af8k6e-20">
          <mxGeometry x="120" y="240" width="100" height="30" as="geometry" />
        </mxCell>
        <mxCell id="B12ETDxXN28JW5af8k6e-45" value="" style="endArrow=none;dashed=1;html=1;dashPattern=1 3;strokeWidth=2;rounded=0;" edge="1" parent="B12ETDxXN28JW5af8k6e-20">
          <mxGeometry width="50" height="50" relative="1" as="geometry">
            <mxPoint x="440" y="340" as="sourcePoint" />
            <mxPoint x="440" y="230" as="targetPoint" />
          </mxGeometry>
        </mxCell>
        <mxCell id="B12ETDxXN28JW5af8k6e-46" value="" style="endArrow=none;dashed=1;html=1;dashPattern=1 3;strokeWidth=2;rounded=0;" edge="1" parent="B12ETDxXN28JW5af8k6e-20">
          <mxGeometry width="50" height="50" relative="1" as="geometry">
            <mxPoint x="240" y="350" as="sourcePoint" />
            <mxPoint x="240" y="290" as="targetPoint" />
          </mxGeometry>
        </mxCell>
        <mxCell id="B12ETDxXN28JW5af8k6e-47" value="" style="endArrow=none;dashed=1;html=1;dashPattern=1 3;strokeWidth=2;rounded=0;" edge="1" parent="B12ETDxXN28JW5af8k6e-20">
          <mxGeometry width="50" height="50" relative="1" as="geometry">
            <mxPoint x="90" y="350" as="sourcePoint" />
            <mxPoint x="90" y="290" as="targetPoint" />
          </mxGeometry>
        </mxCell>
        <mxCell id="B12ETDxXN28JW5af8k6e-48" value="" style="shape=image;html=1;verticalAlign=top;verticalLabelPosition=bottom;labelBackgroundColor=#ffffff;imageAspect=0;aspect=fixed;image=https://cdn2.iconfinder.com/data/icons/essential-web-1-1/50/close-cross-error-wrong-reject-128.png" vertex="1" parent="1">
          <mxGeometry x="235" y="680" width="30" height="30" as="geometry" />
        </mxCell>
        <mxCell id="B12ETDxXN28JW5af8k6e-49" value="" style="shape=image;html=1;verticalAlign=top;verticalLabelPosition=bottom;labelBackgroundColor=#ffffff;imageAspect=0;aspect=fixed;image=https://cdn2.iconfinder.com/data/icons/essential-web-1-1/50/close-cross-error-wrong-reject-128.png" vertex="1" parent="1">
          <mxGeometry x="385" y="680" width="30" height="30" as="geometry" />
        </mxCell>
        <mxCell id="B12ETDxXN28JW5af8k6e-50" value="" style="shape=image;html=1;verticalAlign=top;verticalLabelPosition=bottom;labelBackgroundColor=#ffffff;imageAspect=0;aspect=fixed;image=https://cdn2.iconfinder.com/data/icons/essential-web-1-1/50/close-cross-error-wrong-reject-128.png" vertex="1" parent="1">
          <mxGeometry x="585" y="680" width="30" height="30" as="geometry" />
        </mxCell>
      </root>
    </mxGraphModel>
  </diagram>
</mxfile>
